<svg width="132" height="132" viewBox="0 0 132 132" fill="none" xmlns="http://www.w3.org/2000/svg">
<circle cx="66" cy="66" r="66" fill="url(#paint0_radial_107_66)"/>
<circle cx="47.581" cy="54.9323" r="6.05169" fill="white"/>
<circle cx="83.891" cy="54.9323" r="6.05169" fill="white"/>
<path d="M101.681 57.9582C103.554 57.9582 105.09 59.48 104.901 61.3429C104.535 64.9507 103.585 68.494 102.078 71.8535C100.101 76.2588 97.2033 80.2616 93.5507 83.6333C89.898 87.005 85.5616 89.6796 80.7891 91.5044C76.0167 93.3291 70.9016 94.2683 65.7359 94.2683C60.5702 94.2683 55.4551 93.3291 50.6827 91.5044C45.9102 89.6796 41.5738 87.005 37.9211 83.6333C34.2685 80.2616 31.371 76.2588 29.3942 71.8535C27.8867 68.494 26.9371 64.9507 26.5712 61.3429C26.3822 59.48 27.9179 57.9582 29.7904 57.9582C31.6629 57.9582 33.1597 59.4817 33.3877 61.3403C33.7295 64.1254 34.4924 66.8583 35.659 69.4581C37.2951 73.104 39.693 76.4168 42.716 79.2073C45.7391 81.9977 49.3279 84.2113 53.2776 85.7214C57.2274 87.2316 61.4607 88.0089 65.7359 88.0089C70.0111 88.0089 74.2444 87.2316 78.1942 85.7214C82.1439 84.2113 85.7327 81.9977 88.7558 79.2073C91.7788 76.4168 94.1768 73.104 95.8128 69.4581C96.9794 66.8583 97.7423 64.1254 98.0841 61.3403C98.3121 59.4817 99.8089 57.9582 101.681 57.9582Z" fill="white"/>
<defs>
<radialGradient id="paint0_radial_107_66" cx="0" cy="0" r="1" gradientUnits="userSpaceOnUse" gradientTransform="translate(44.3284 33.3183) rotate(42.3734) scale(223.567 152.517)">
<stop stop-color="#FF8D93"/>
<stop offset="1" stop-color="#FF3B3E"/>
</radialGradient>
</defs>
</svg>
