<svg width="80" height="80" viewBox="0 0 80 80" fill="none" xmlns="http://www.w3.org/2000/svg">
<circle cx="40" cy="40" r="40" fill="url(#paint0_radial_115_481)"/>
<circle cx="28.8369" cy="33.2927" r="3.66769" fill="white"/>
<circle cx="50.843" cy="33.2927" r="3.66769" fill="white"/>
<path d="M61.6251 35.1263C62.76 35.1263 63.6907 36.0486 63.5762 37.1776C63.3544 39.3641 62.7789 41.5116 61.8653 43.5477C60.6672 46.2176 58.9112 48.6435 56.6974 50.687C54.4837 52.7304 51.8556 54.3514 48.9632 55.4573C46.0708 56.5632 42.9707 57.1324 39.84 57.1324C36.7093 57.1324 33.6092 56.5632 30.7168 55.4573C27.8244 54.3514 25.1963 52.7304 22.9826 50.687C20.7688 48.6435 19.0128 46.2176 17.8147 43.5477C16.9011 41.5116 16.3256 39.3641 16.1038 37.1776C15.9893 36.0486 16.92 35.1263 18.0549 35.1263C19.1897 35.1263 20.0968 36.0496 20.2351 37.176C20.4422 38.864 20.9045 40.5203 21.6116 42.0959C22.6031 44.3056 24.0564 46.3133 25.8886 48.0045C27.7207 49.6957 29.8958 51.0372 32.2895 51.9525C34.6833 52.8678 37.249 53.3389 39.84 53.3389C42.431 53.3389 44.9967 52.8678 47.3905 51.9525C49.7842 51.0372 51.9593 49.6957 53.7914 48.0045C55.6236 46.3133 57.0769 44.3056 58.0684 42.0959C58.7755 40.5203 59.2378 38.864 59.4449 37.176C59.5832 36.0496 60.4903 35.1263 61.6251 35.1263Z" fill="white"/>
<defs>
<radialGradient id="paint0_radial_115_481" cx="0" cy="0" r="1" gradientUnits="userSpaceOnUse" gradientTransform="translate(8.36364 74.2122) rotate(20.7189) scale(123.243 85.0822)">
<stop stop-color="#FFF48D"/>
<stop offset="1" stop-color="#FFBC3B"/>
</radialGradient>
</defs>
</svg>
