<svg width="23" height="19" viewBox="0 0 23 19" fill="none" xmlns="http://www.w3.org/2000/svg">
<path d="M20.3206 1.89956C19.766 1.33888 19.1054 0.894167 18.3773 0.591286C17.6491 0.288417 16.8679 0.133437 16.0794 0.135394C15.2907 0.133437 14.5096 0.288417 13.7815 0.591286C13.0534 0.894167 12.3928 1.33888 11.8381 1.89956L11.4998 2.24998L11.1615 1.91163C10.0398 0.790069 8.51851 0.159984 6.9323 0.159984C5.34607 0.159984 3.82482 0.790069 2.70313 1.91163C1.59613 3.041 0.976074 4.55938 0.976074 6.14081C0.976074 7.72225 1.59613 9.24064 2.70313 10.37L10.8835 18.5745C11.0534 18.7443 11.2837 18.8396 11.524 18.8396C11.7641 18.8396 11.9945 18.7443 12.1644 18.5745L20.3448 10.37C21.4522 9.2369 22.0702 7.71416 22.0657 6.12982C22.0612 4.54546 21.4345 3.02628 20.3206 1.89956Z" fill="url(#paint0_radial_126_28)"/>
<defs>
<radialGradient id="paint0_radial_126_28" cx="0" cy="0" r="1" gradientUnits="userSpaceOnUse" gradientTransform="translate(8.05842 4.85655) rotate(45) scale(27.0729 18.1384)">
<stop stop-color="#FFA0A6"/>
<stop offset="0.333333" stop-color="#FF4C56"/>
<stop offset="1" stop-color="#FF0004"/>
</radialGradient>
</defs>
</svg>
