<svg width="121" height="58" viewBox="0 0 121 58" fill="none" xmlns="http://www.w3.org/2000/svg">
<path d="M0.096 47L12 13.4H24.672L36.576 47H22.944L21.744 42.488H13.008L11.808 47H0.096ZM15.456 33.272H19.248L17.376 24.92L15.456 33.272ZM39.7762 47V13.4H52.4482V47H39.7762ZM65.289 47V23.576H56.505V13.4H86.745V23.576H77.961V47H65.289ZM104.272 47.72C101.072 47.72 98.3685 47.352 96.1605 46.616C93.9525 45.848 92.2245 44.664 90.9765 43.064C89.7605 41.464 88.9925 39.416 88.6725 36.92H101.344C101.44 37.592 101.696 38.088 102.112 38.408C102.528 38.728 103.248 38.888 104.272 38.888C105.392 38.888 106.16 38.776 106.576 38.552C106.992 38.296 107.2 37.912 107.2 37.4C107.2 37.016 107.04 36.712 106.72 36.488C106.4 36.232 105.776 35.976 104.848 35.72C103.92 35.464 102.528 35.144 100.672 34.76C98.5605 34.312 96.6725 33.688 95.0085 32.888C93.3445 32.056 92.0325 30.904 91.0725 29.432C90.1125 27.96 89.6325 26.056 89.6325 23.72C89.6325 21.224 90.2405 19.16 91.4565 17.528C92.7045 15.896 94.4325 14.68 96.6405 13.88C98.8485 13.08 101.392 12.68 104.272 12.68C107.344 12.68 109.92 13.096 112 13.928C114.08 14.76 115.712 15.96 116.896 17.528C118.08 19.064 118.832 20.888 119.152 23H106.48C106.416 22.552 106.208 22.2 105.856 21.944C105.536 21.656 105.008 21.512 104.272 21.512C103.632 21.512 103.136 21.64 102.784 21.896C102.464 22.12 102.304 22.488 102.304 23C102.304 23.608 102.688 24.072 103.456 24.392C104.224 24.68 105.696 25.016 107.872 25.4C109.28 25.656 110.688 26.008 112.096 26.456C113.504 26.872 114.8 27.48 115.984 28.28C117.168 29.048 118.112 30.072 118.816 31.352C119.52 32.632 119.872 34.232 119.872 36.152C119.872 38.776 119.232 40.952 117.952 42.68C116.672 44.376 114.864 45.64 112.528 46.472C110.192 47.304 107.44 47.72 104.272 47.72Z" fill="black"/>
<circle cx="78.5" cy="8.5" r="5.5" fill="black"/>
<circle cx="69.5" cy="10.5" r="3.5" fill="black"/>
</svg>
