<svg width="120" height="36" viewBox="0 0 120 36" fill="none" xmlns="http://www.w3.org/2000/svg">
<path d="M0.096 35L12 1.4H24.672L36.576 35H22.944L21.744 30.488H13.008L11.808 35H0.096ZM15.456 21.272H19.248L17.376 12.92L15.456 21.272ZM39.7762 35V1.4H52.4482V35H39.7762ZM65.289 35V11.576H56.505V1.4H86.745V11.576H77.961V35H65.289ZM104.272 35.72C101.072 35.72 98.3685 35.352 96.1605 34.616C93.9525 33.848 92.2245 32.664 90.9765 31.064C89.7605 29.464 88.9925 27.416 88.6725 24.92H101.344C101.44 25.592 101.696 26.088 102.112 26.408C102.528 26.728 103.248 26.888 104.272 26.888C105.392 26.888 106.16 26.776 106.576 26.552C106.992 26.296 107.2 25.912 107.2 25.4C107.2 25.016 107.04 24.712 106.72 24.488C106.4 24.232 105.776 23.976 104.848 23.72C103.92 23.464 102.528 23.144 100.672 22.76C98.5605 22.312 96.6725 21.688 95.0085 20.888C93.3445 20.056 92.0325 18.904 91.0725 17.432C90.1125 15.96 89.6325 14.056 89.6325 11.72C89.6325 9.224 90.2405 7.16 91.4565 5.528C92.7045 3.896 94.4325 2.68 96.6405 1.88C98.8485 1.08 101.392 0.679998 104.272 0.679998C107.344 0.679998 109.92 1.096 112 1.928C114.08 2.76 115.712 3.96 116.896 5.528C118.08 7.064 118.832 8.888 119.152 11H106.48C106.416 10.552 106.208 10.2 105.856 9.944C105.536 9.656 105.008 9.512 104.272 9.512C103.632 9.512 103.136 9.64 102.784 9.896C102.464 10.12 102.304 10.488 102.304 11C102.304 11.608 102.688 12.072 103.456 12.392C104.224 12.68 105.696 13.016 107.872 13.4C109.28 13.656 110.688 14.008 112.096 14.456C113.504 14.872 114.8 15.48 115.984 16.28C117.168 17.048 118.112 18.072 118.816 19.352C119.52 20.632 119.872 22.232 119.872 24.152C119.872 26.776 119.232 28.952 117.952 30.68C116.672 32.376 114.864 33.64 112.528 34.472C110.192 35.304 107.44 35.72 104.272 35.72Z" fill="black"/>
</svg>
